# xmcd CD database file
#
# Track frame offsets:
#	150
#	14126
#	30322
#	48366
#	60828
#	78053
#	95037
#	116521
#	135195
#	146550
#	163206
#
# Disc length: 2394 seconds
#
# Revision: 0
# Processed by: cddbd v1.5.1PL2 Copyright (c) Steve Scherf et al.
# Submitted via: CDex 1.51
#
DISCID=8409580b
DTITLE=Billy Currington - Doin' Somethin' Right
DYEAR=2005
DGENRE=Country
TTITLE0=I Wanna Be A Hillbilly
TTITLE1=Good Directions
TTITLE2=Must Be Doin' Somethin' Right
TTITLE3=Why Why Why
TTITLE4=That Changes Everything
TTITLE5=Little Bit Lonely
TTITLE6=She's Got A Way With Me
TTITLE7=Lucille
TTITLE8=Whole Lot More
TTITLE9=Here I Am
TTITLE10=She Knows What To Do With A Saturday Night
EXTD=YEAR: 2005
EXTT0=
EXTT1=
EXTT2=
EXTT3=
EXTT4=
EXTT5=
EXTT6=
EXTT7=
EXTT8=
EXTT9=
EXTT10=
PLAYORDER=
